<mxfile host="app.diagrams.net" modified="2022-11-30T09:16:58.218Z" agent="5.0 (Macintosh; Intel Mac OS X 10_15_7) AppleWebKit/537.36 (KHTML, like Gecko) Chrome/107.0.0.0 Safari/537.36" etag="nQ8P3fd2dFhcy-oyt6bZ" version="20.5.2" type="github">
  <diagram id="KesGSUQZ1qKI0CmqAFl0" name="第 1 页">
    <mxGraphModel dx="1198" dy="700" grid="1" gridSize="10" guides="1" tooltips="1" connect="1" arrows="1" fold="1" page="1" pageScale="1" pageWidth="827" pageHeight="1169" math="0" shadow="0">
      <root>
        <mxCell id="0" />
        <mxCell id="1" parent="0" />
        <mxCell id="9YOoZQaAgLzlB-2kJQ31-3" style="edgeStyle=orthogonalEdgeStyle;rounded=0;orthogonalLoop=1;jettySize=auto;html=1;exitX=1;exitY=0.5;exitDx=0;exitDy=0;strokeColor=#788AA3;fontColor=#46495D;fillColor=#B2C9AB;comic=1;fontFamily=Helvetica;" edge="1" parent="1" source="9YOoZQaAgLzlB-2kJQ31-1" target="9YOoZQaAgLzlB-2kJQ31-2">
          <mxGeometry relative="1" as="geometry" />
        </mxCell>
        <mxCell id="9YOoZQaAgLzlB-2kJQ31-1" value="汉溪长隆" style="whiteSpace=wrap;html=1;strokeColor=#788AA3;fontColor=#46495D;fillColor=#B2C9AB;comic=1;fontFamily=Helvetica;" vertex="1" parent="1">
          <mxGeometry x="160" y="780" width="80" height="60" as="geometry" />
        </mxCell>
        <mxCell id="9YOoZQaAgLzlB-2kJQ31-14" value="" style="edgeStyle=orthogonalEdgeStyle;rounded=0;comic=1;orthogonalLoop=1;jettySize=auto;html=1;strokeColor=#788AA3;fontColor=#46495D;fillColor=#B2C9AB;fontFamily=Helvetica;" edge="1" parent="1" source="9YOoZQaAgLzlB-2kJQ31-2" target="9YOoZQaAgLzlB-2kJQ31-12">
          <mxGeometry relative="1" as="geometry" />
        </mxCell>
        <mxCell id="9YOoZQaAgLzlB-2kJQ31-2" value="大学城南" style="whiteSpace=wrap;html=1;strokeColor=#d79b00;fillColor=#ffe6cc;comic=1;fontFamily=Helvetica;" vertex="1" parent="1">
          <mxGeometry x="310" y="780" width="70" height="60" as="geometry" />
        </mxCell>
        <mxCell id="9YOoZQaAgLzlB-2kJQ31-15" value="" style="edgeStyle=orthogonalEdgeStyle;rounded=0;comic=1;orthogonalLoop=1;jettySize=auto;html=1;strokeColor=#788AA3;fontColor=#46495D;fillColor=#B2C9AB;fontFamily=Helvetica;" edge="1" parent="1" source="9YOoZQaAgLzlB-2kJQ31-12" target="9YOoZQaAgLzlB-2kJQ31-13">
          <mxGeometry relative="1" as="geometry" />
        </mxCell>
        <mxCell id="9YOoZQaAgLzlB-2kJQ31-12" value="车陂南" style="whiteSpace=wrap;html=1;strokeColor=#d79b00;fillColor=#ffe6cc;comic=1;fontFamily=Helvetica;" vertex="1" parent="1">
          <mxGeometry x="440" y="780" width="80" height="60" as="geometry" />
        </mxCell>
        <mxCell id="9YOoZQaAgLzlB-2kJQ31-13" value="大沙地" style="whiteSpace=wrap;html=1;strokeColor=#b85450;fillColor=#f8cecc;comic=1;fontFamily=Helvetica;" vertex="1" parent="1">
          <mxGeometry x="580" y="780" width="80" height="60" as="geometry" />
        </mxCell>
        <mxCell id="9YOoZQaAgLzlB-2kJQ31-16" value="4站" style="text;html=1;align=center;verticalAlign=middle;resizable=0;points=[];autosize=1;strokeColor=none;fillColor=none;fontColor=#46495D;fontFamily=Helvetica;" vertex="1" parent="1">
          <mxGeometry x="250" y="770" width="40" height="30" as="geometry" />
        </mxCell>
        <mxCell id="9YOoZQaAgLzlB-2kJQ31-17" value="4站" style="text;html=1;align=center;verticalAlign=middle;resizable=0;points=[];autosize=1;strokeColor=none;fillColor=none;fontColor=#46495D;fontFamily=Helvetica;" vertex="1" parent="1">
          <mxGeometry x="390" y="770" width="40" height="30" as="geometry" />
        </mxCell>
        <mxCell id="9YOoZQaAgLzlB-2kJQ31-18" value="4站" style="text;html=1;align=center;verticalAlign=middle;resizable=0;points=[];autosize=1;strokeColor=none;fillColor=none;fontColor=#46495D;fontFamily=Helvetica;" vertex="1" parent="1">
          <mxGeometry x="530" y="770" width="40" height="30" as="geometry" />
        </mxCell>
        <mxCell id="9YOoZQaAgLzlB-2kJQ31-19" value="7号线" style="text;html=1;align=center;verticalAlign=middle;resizable=0;points=[];autosize=1;strokeColor=none;fillColor=none;fontColor=#46495D;fontFamily=Helvetica;" vertex="1" parent="1">
          <mxGeometry x="175" y="845" width="50" height="30" as="geometry" />
        </mxCell>
        <mxCell id="9YOoZQaAgLzlB-2kJQ31-20" value="换乘 4 号线" style="text;html=1;align=center;verticalAlign=middle;resizable=0;points=[];autosize=1;strokeColor=none;fillColor=none;fontColor=#46495D;fontFamily=Helvetica;" vertex="1" parent="1">
          <mxGeometry x="305" y="845" width="80" height="30" as="geometry" />
        </mxCell>
        <mxCell id="9YOoZQaAgLzlB-2kJQ31-21" value="换乘 5 号线" style="text;html=1;align=center;verticalAlign=middle;resizable=0;points=[];autosize=1;strokeColor=none;fillColor=none;fontColor=#46495D;fontFamily=Helvetica;" vertex="1" parent="1">
          <mxGeometry x="440" y="845" width="80" height="30" as="geometry" />
        </mxCell>
        <mxCell id="9YOoZQaAgLzlB-2kJQ31-22" style="edgeStyle=orthogonalEdgeStyle;rounded=0;orthogonalLoop=1;jettySize=auto;html=1;exitX=1;exitY=0.5;exitDx=0;exitDy=0;strokeColor=#788AA3;fontColor=#46495D;fillColor=#B2C9AB;comic=1;fontFamily=Helvetica;" edge="1" source="9YOoZQaAgLzlB-2kJQ31-23" target="9YOoZQaAgLzlB-2kJQ31-25" parent="1">
          <mxGeometry relative="1" as="geometry" />
        </mxCell>
        <mxCell id="9YOoZQaAgLzlB-2kJQ31-23" value="汉溪长隆" style="whiteSpace=wrap;html=1;strokeColor=#82b366;fillColor=#B2C9AB;comic=1;fontFamily=Helvetica;" vertex="1" parent="1">
          <mxGeometry x="160" y="947" width="80" height="60" as="geometry" />
        </mxCell>
        <mxCell id="9YOoZQaAgLzlB-2kJQ31-24" value="" style="edgeStyle=orthogonalEdgeStyle;rounded=0;comic=1;orthogonalLoop=1;jettySize=auto;html=1;strokeColor=#788AA3;fontColor=#46495D;fillColor=#B2C9AB;fontFamily=Helvetica;" edge="1" source="9YOoZQaAgLzlB-2kJQ31-25" parent="1">
          <mxGeometry relative="1" as="geometry">
            <mxPoint x="440" y="977" as="targetPoint" />
          </mxGeometry>
        </mxCell>
        <mxCell id="9YOoZQaAgLzlB-2kJQ31-25" value="珠江新城" style="whiteSpace=wrap;html=1;strokeColor=#d79b00;fillColor=#ffe6cc;comic=1;fontFamily=Helvetica;" vertex="1" parent="1">
          <mxGeometry x="310" y="947" width="70" height="60" as="geometry" />
        </mxCell>
        <mxCell id="9YOoZQaAgLzlB-2kJQ31-28" value="大沙地" style="whiteSpace=wrap;html=1;strokeColor=#b85450;fillColor=#f8cecc;comic=1;fontFamily=Helvetica;" vertex="1" parent="1">
          <mxGeometry x="440" y="947" width="80" height="60" as="geometry" />
        </mxCell>
        <mxCell id="9YOoZQaAgLzlB-2kJQ31-29" value="7站" style="text;html=1;align=center;verticalAlign=middle;resizable=0;points=[];autosize=1;strokeColor=none;fillColor=none;fontColor=#46495D;fontFamily=Helvetica;" vertex="1" parent="1">
          <mxGeometry x="250" y="940" width="40" height="30" as="geometry" />
        </mxCell>
        <mxCell id="9YOoZQaAgLzlB-2kJQ31-30" value="9站" style="text;html=1;align=center;verticalAlign=middle;resizable=0;points=[];autosize=1;strokeColor=none;fillColor=none;fontColor=#46495D;fontFamily=Helvetica;" vertex="1" parent="1">
          <mxGeometry x="390" y="940" width="40" height="30" as="geometry" />
        </mxCell>
        <mxCell id="9YOoZQaAgLzlB-2kJQ31-32" value="3号线" style="text;html=1;align=center;verticalAlign=middle;resizable=0;points=[];autosize=1;strokeColor=none;fillColor=none;fontColor=#46495D;fontFamily=Helvetica;" vertex="1" parent="1">
          <mxGeometry x="175" y="1012" width="50" height="30" as="geometry" />
        </mxCell>
        <mxCell id="9YOoZQaAgLzlB-2kJQ31-33" value="换乘 5 号线" style="text;html=1;align=center;verticalAlign=middle;resizable=0;points=[];autosize=1;strokeColor=none;fillColor=none;fontColor=#46495D;fontFamily=Helvetica;" vertex="1" parent="1">
          <mxGeometry x="305" y="1012" width="80" height="30" as="geometry" />
        </mxCell>
        <mxCell id="9YOoZQaAgLzlB-2kJQ31-35" value="路线一：" style="text;html=1;align=center;verticalAlign=middle;resizable=0;points=[];autosize=1;strokeColor=none;fillColor=none;fontColor=#46495D;fontFamily=Helvetica;" vertex="1" parent="1">
          <mxGeometry x="60" y="795" width="70" height="30" as="geometry" />
        </mxCell>
        <mxCell id="9YOoZQaAgLzlB-2kJQ31-36" value="路线二：" style="text;html=1;align=center;verticalAlign=middle;resizable=0;points=[];autosize=1;strokeColor=none;fillColor=none;fontColor=#46495D;fontFamily=Helvetica;" vertex="1" parent="1">
          <mxGeometry x="60" y="962" width="70" height="30" as="geometry" />
        </mxCell>
        <mxCell id="9YOoZQaAgLzlB-2kJQ31-37" value="起点" style="rounded=1;whiteSpace=wrap;html=1;comic=1;strokeColor=#B2C9AB;fontFamily=Helvetica;fontColor=#46495D;fillColor=#B2C9AB;" vertex="1" parent="1">
          <mxGeometry x="730" y="630" width="60" height="30" as="geometry" />
        </mxCell>
        <mxCell id="9YOoZQaAgLzlB-2kJQ31-38" value="换乘" style="rounded=1;whiteSpace=wrap;html=1;comic=1;strokeColor=#d79b00;fontFamily=Helvetica;fillColor=#ffe6cc;" vertex="1" parent="1">
          <mxGeometry x="730" y="670" width="60" height="30" as="geometry" />
        </mxCell>
        <mxCell id="9YOoZQaAgLzlB-2kJQ31-39" value="终点" style="rounded=1;whiteSpace=wrap;html=1;comic=1;strokeColor=#b85450;fontFamily=Helvetica;fillColor=#f8cecc;" vertex="1" parent="1">
          <mxGeometry x="730" y="710" width="60" height="30" as="geometry" />
        </mxCell>
      </root>
    </mxGraphModel>
  </diagram>
</mxfile>
